<?xml version="1.0" standalone="no"?>
<!DOCTYPE svg PUBLIC "-//W3C//DTD SVG 20010904//EN"
 "http://www.w3.org/TR/2001/REC-SVG-20010904/DTD/svg10.dtd">
<svg version="1.0" xmlns="http://www.w3.org/2000/svg"
 width="116.000000pt" height="114.000000pt" viewBox="0 0 116.000000 114.000000"
 preserveAspectRatio="xMidYMid meet">

<g transform="translate(0.000000,114.000000) scale(0.100000,-0.100000)"
fill="#000000" stroke="none">
<path d="M900 1098 l0 -43 -413 -149 c-226 -82 -418 -154 -425 -159 -9 -7 -12
-52 -10 -186 l3 -175 310 -113 c171 -62 361 -131 423 -154 l112 -41 0 -39 c0
-21 5 -39 11 -39 6 0 9 19 7 47 l-3 48 -200 72 c-110 40 -300 110 -423 154
l-222 82 2 165 3 165 310 114 c171 62 361 131 423 154 l112 41 0 49 c0 27 -4
49 -10 49 -5 0 -10 -19 -10 -42z"/>
<path d="M1060 570 c0 -373 3 -570 10 -570 7 0 10 197 10 570 0 373 -3 570
-10 570 -7 0 -10 -197 -10 -570z"/>
</g>
</svg>
